<?xml version="1.0" standalone="no"?>
<!DOCTYPE svg PUBLIC "-//W3C//DTD SVG 20010904//EN"
 "http://www.w3.org/TR/2001/REC-SVG-20010904/DTD/svg10.dtd">
<svg version="1.0" xmlns="http://www.w3.org/2000/svg"
 width="24.000000pt" height="24.000000pt" viewBox="0 0 24.000000 24.000000"
 preserveAspectRatio="xMidYMid meet">

<g transform="translate(0.000000,24.000000) scale(0.100000,-0.100000)"
fill="#000000" stroke="none">
<path d="M16 185 c-15 -27 -17 -38 -8 -47 7 -7 12 -36 12 -65 l0 -53 100 0
100 0 0 53 c0 29 5 58 12 65 9 9 7 20 -8 47 l-19 35 -85 0 -85 0 -19 -35z
m194 6 c5 -11 10 -22 10 -25 0 -3 -45 -6 -100 -6 -55 0 -100 3 -100 6 0 3 5
14 10 25 9 16 22 19 90 19 68 0 81 -3 90 -19z m-160 -45 c0 -11 -19 -15 -25
-6 -3 5 1 10 9 10 9 0 16 -2 16 -4z m55 -6 c-3 -5 -12 -7 -20 -3 -21 7 -19 13
6 13 11 0 18 -4 14 -10z m65 6 c0 -9 -30 -14 -35 -6 -4 6 3 10 14 10 12 0 21
-2 21 -4z m50 0 c0 -11 -19 -15 -25 -6 -3 5 1 10 9 10 9 0 16 -2 16 -4z m-17
-25 c4 0 7 -21 7 -46 l0 -45 -49 0 -50 0 -3 38 c-3 32 -6 37 -28 37 -22 0 -25
-5 -28 -37 -2 -21 -7 -38 -13 -38 -14 0 -11 88 4 93 10 3 138 2 160 -2z m-105
-59 c2 -24 -1 -32 -12 -32 -12 0 -16 10 -16 36 0 45 24 42 28 -4z"/>
<path d="M124 95 c-9 -23 3 -45 24 -45 25 0 46 25 38 45 -7 19 -55 20 -62 0z
m46 -10 c0 -8 -9 -15 -20 -15 -20 0 -26 11 -13 23 12 13 33 7 33 -8z"/>
</g>
</svg>
